<svg xmlns="http://www.w3.org/2000/svg" xmlns:xlink="http://www.w3.org/1999/xlink" viewBox="0 0 1587 361.03"><defs><style>.cls-1,.cls-2{fill:none;}.cls-1{opacity:0;}.cls-2{stroke:#c1272d;stroke-miterlimit:10;stroke-width:3px;}.cls-3{clip-path:url(#clip-path);}.cls-4{clip-path:url(#clip-path-2);}.cls-5{clip-path:url(#clip-path-3);}</style><clipPath id="clip-path"><path class="cls-1" d="M258.83,0c23.85.14,22.67,22.76,10.89,40.25-11.78,19.27-40.39,40.44-62.46,40.25-23.91-.19-22.59-22.73-10.84-40.25C208.19,21,236.84-.16,258.83,0Zm-43,67.08C230.41,67.16,249.17,53,257,40.25c7.7-11.41,9-26.74-6.73-26.83-14.52-.09-33.29,14.1-41.07,26.83C201.46,51.7,200.11,66.94,215.85,67.08ZM350.73,0,299.15,80.5H286.41l43-67.08h-7.64L335.67,0Zm71.46,0c23.84.14,22.67,22.76,10.88,40.25C421.3,59.52,392.69,80.69,370.61,80.5c-23.9-.19-22.59-22.73-10.83-40.25C371.55,21,400.2-.16,422.19,0Zm-43,67.08c14.56.08,33.32-14.11,41.12-26.83,7.7-11.41,9-26.74-6.74-26.83-14.51-.09-33.28,14.1-41.06,26.83C364.82,51.7,363.47,66.94,379.21,67.08ZM530.33,0C554.17.14,553,22.76,541.21,40.25c-11.77,19.27-40.38,40.44-62.46,40.25-23.91-.19-22.59-22.73-10.83-40.25C479.68,21,508.34-.16,530.33,0Zm-43,67.08c14.56.08,33.31-14.11,41.12-26.83,7.7-11.41,9-26.74-6.74-26.83-14.51-.09-33.28,14.1-41.07,26.83C473,51.7,471.61,66.94,487.35,67.08ZM622.22,0,570.65,80.5H557.9l43-67.08h-7.63L607.17,0Zm27.91,0L598.55,80.5H585.81l43-67.08h-7.64L635.07,0ZM153.46,139.12l-51.58,80.5H89.14l43-67.08h-7.64l13.92-13.42Zm55.22,0-51.58,80.5H144.36l43-67.08H179.7l13.92-13.42Zm55.22,0-51.57,80.5H199.58l43-67.08h-7.63l13.92-13.42Zm71.47,0c23.84.14,22.66,22.77,10.88,40.25-11.77,19.27-40.38,40.44-62.46,40.25-23.91-.19-22.59-22.73-10.83-40.25C284.72,160.12,313.38,139,335.37,139.12Zm-43,67.09c14.56.07,33.31-14.12,41.12-26.84,7.7-11.4,9-26.74-6.74-26.83-14.51-.08-33.28,14.1-41.07,26.83C278,190.82,276.65,206.06,292.39,206.21ZM443.5,139.12c23.85.14,22.67,22.77,10.89,40.25-11.78,19.27-40.39,40.44-62.46,40.25-23.91-.19-22.59-22.73-10.84-40.25C392.86,160.12,421.51,139,443.5,139.12Zm-43,67.09c14.56.07,33.32-14.12,41.12-26.84,7.7-11.4,9-26.74-6.73-26.83-14.52-.08-33.29,14.1-41.07,26.83C386.13,190.82,384.78,206.06,400.52,206.21ZM535.4,139.12l-51.58,80.5H471.08l43-67.08h-7.64l13.92-13.42Zm27.9,0-51.57,80.5H499l43-67.08h-7.64l13.92-13.42Zm-499,139.13L12.74,358.74H0l43-67.08H35.34l13.92-13.41Zm71.46,0c23.85.13,22.67,22.76,10.89,40.24-11.77,19.27-40.39,40.45-62.46,40.25C60.3,358.55,61.62,336,73.38,318.49,85.14,299.24,113.79,278.08,135.78,278.25Zm-43,67.08c14.56.07,33.32-14.11,41.12-26.84,7.71-11.4,9-26.74-6.73-26.83-14.51-.08-33.29,14.1-41.07,26.83C78.41,330,77.06,345.18,92.8,345.33Zm134.88-67.08L176.1,358.74H163.36l43-67.08H198.7l13.92-13.41Zm55.22,0-51.57,80.49H218.58l43-67.08h-7.63l13.92-13.41Zm71.47,0c23.84.13,22.66,22.76,10.88,40.24-11.77,19.27-40.38,40.45-62.46,40.25C278.88,358.55,280.2,336,292,318.49,303.72,299.24,332.38,278.08,354.37,278.25Zm-43,67.08c14.56.07,33.31-14.11,41.12-26.84,7.7-11.4,9-26.74-6.74-26.83-14.51-.08-33.28,14.1-41.07,26.83C297,330,295.65,345.18,311.39,345.33Zm134.87-67.08-51.57,80.49H381.94l43-67.08h-7.63l13.92-13.41Zm27.91,0-51.58,80.49H409.85l43-67.08h-7.64l13.92-13.41Z"/></clipPath><clipPath id="clip-path-2"><path class="cls-1" d="M734.33,2.28c23.85.14,22.67,22.77,10.89,40.25C733.45,61.8,704.83,83,682.76,82.78c-23.91-.19-22.59-22.73-10.83-40.25C683.69,23.28,712.34,2.12,734.33,2.28Zm-43,67.08c14.56.08,33.32-14.11,41.12-26.83,7.71-11.4,9-26.74-6.73-26.83-14.51-.08-33.29,14.1-41.07,26.83C677,54,675.61,69.22,691.35,69.36ZM826.23,2.28l-51.58,80.5H761.91l43-67.08h-7.64L811.17,2.28Zm71.46,0c23.85.14,22.67,22.77,10.89,40.25C896.8,61.8,868.19,83,846.12,82.78c-23.91-.19-22.59-22.73-10.84-40.25C847.05,23.28,875.7,2.12,897.69,2.28Zm-43,67.08c14.56.08,33.32-14.11,41.12-26.83,7.7-11.4,9-26.74-6.73-26.83-14.52-.08-33.29,14.1-41.07,26.83C840.32,54,839,69.22,854.71,69.36ZM1005.83,2.28c23.84.14,22.66,22.77,10.88,40.25C1004.94,61.8,976.33,83,954.25,82.78c-23.91-.19-22.59-22.73-10.83-40.25C955.18,23.28,983.84,2.12,1005.83,2.28Zm-43,67.08c14.56.08,33.31-14.11,41.12-26.83,7.7-11.4,9-26.74-6.74-26.83-14.51-.08-33.28,14.1-41.07,26.83C948.45,54,947.11,69.22,962.85,69.36ZM1097.72,2.28l-51.57,80.5H1033.4l43-67.08h-7.63l13.92-13.42Zm27.91,0-51.57,80.5h-12.75l43-67.08h-7.64l13.92-13.42ZM629,141.41,577.38,221.9H564.64l43-67.08H600l13.92-13.41Zm55.22,0L632.6,221.9H619.86l43-67.08H655.2l13.92-13.41Zm55.22,0L687.83,221.9H675.08l43-67.08h-7.63l13.92-13.41Zm71.47,0c23.84.13,22.66,22.76,10.88,40.24C810,200.92,781.37,222.1,759.29,221.9c-23.91-.19-22.59-22.73-10.83-40.24C760.22,162.4,788.88,141.24,810.87,141.41Zm-43,67.08c14.56.07,33.31-14.11,41.12-26.84,7.7-11.4,9-26.74-6.74-26.83-14.51-.08-33.28,14.1-41.07,26.83C753.49,193.11,752.15,208.34,767.89,208.49ZM919,141.41c23.85.13,22.67,22.76,10.89,40.24-11.77,19.27-40.39,40.45-62.46,40.25-23.91-.19-22.59-22.73-10.83-40.24C868.36,162.4,897,141.24,919,141.41Zm-43,67.08c14.56.07,33.32-14.11,41.12-26.84,7.71-11.4,9-26.74-6.73-26.83-14.51-.08-33.29,14.1-41.07,26.83C861.63,193.11,860.28,208.34,876,208.49Zm134.88-67.08L959.32,221.9H946.58l43-67.08h-7.64l13.92-13.41Zm27.91,0L987.23,221.9H974.49l43-67.08h-7.64l13.92-13.41Zm-499,139.12L488.25,361H475.5l43-67.09h-7.63l13.91-13.41Zm71.46,0c23.85.13,22.67,22.76,10.89,40.25C610.4,340,581.79,361.22,559.71,361c-23.91-.19-22.59-22.74-10.83-40.25C560.64,301.53,589.29,280.36,611.28,280.53Zm-43,67.08c14.56.07,33.32-14.11,41.12-26.83,7.71-11.41,9-26.75-6.73-26.84-14.51-.08-33.29,14.1-41.07,26.84C553.91,332.23,552.57,347.46,568.3,347.61Zm134.88-67.08L651.6,361H638.86l43-67.09H674.2l13.92-13.41Zm55.22,0L706.83,361H694.08l43-67.09h-7.63l13.92-13.41Zm71.47,0c23.84.13,22.66,22.76,10.88,40.25C829,340,800.37,361.22,778.29,361c-23.91-.19-22.59-22.74-10.83-40.25C779.22,301.53,807.88,280.36,829.87,280.53Zm-43,67.08c14.56.07,33.31-14.11,41.12-26.83,7.7-11.41,9-26.75-6.74-26.84-14.51-.08-33.28,14.1-41.07,26.84C772.49,332.23,771.15,347.46,786.89,347.61Zm134.87-67.08L870.19,361H857.44l43-67.09h-7.63l13.92-13.41Zm27.91,0L898.09,361H885.35l43-67.09h-7.64l13.92-13.41Z"/></clipPath><clipPath id="clip-path-3"><path class="cls-1" d="M1195.7,2.28c23.84.14,22.66,22.77,10.88,40.25C1194.81,61.8,1166.2,83,1144.12,82.78c-23.91-.19-22.59-22.73-10.83-40.25C1145.05,23.28,1173.71,2.12,1195.7,2.28Zm-43,67.08c14.56.08,33.31-14.11,41.12-26.83,7.7-11.4,9-26.74-6.74-26.83-14.51-.08-33.28,14.1-41.07,26.83C1138.32,54,1137,69.22,1152.72,69.36ZM1287.59,2.28,1236,82.78h-12.75l43-67.08h-7.63l13.92-13.42Zm71.47,0c23.84.14,22.66,22.77,10.88,40.25-11.77,19.27-40.38,40.44-62.46,40.25-23.91-.19-22.59-22.73-10.83-40.25C1308.41,23.28,1337.07,2.12,1359.06,2.28Zm-43,67.08c14.56.08,33.31-14.11,41.12-26.83,7.7-11.4,9-26.74-6.74-26.83-14.51-.08-33.28,14.1-41.07,26.83C1301.68,54,1300.34,69.22,1316.08,69.36Zm117.67-55.25c15.58-10.75,45.93-20.31,51.78,0q3.21,11.78-7.45,28.42C1466.3,61.8,1437.69,83,1415.62,82.78q-15.12,0-18.32-11.77t7.49-28.48a94.3,94.3,0,0,1,29-28.42m-9.54,55.25c14.56.08,33.32-14.11,41.12-26.83,7.7-11.4,9-26.74-6.73-26.83-14.51-.08-33.29,14.1-41.07,26.83C1409.82,54,1408.47,69.22,1424.21,69.36ZM1559.09,2.28l-51.58,80.5h-12.74l43-67.08h-7.64L1544,2.28Zm27.91,0-51.58,80.5h-12.74l43-67.08H1558l13.92-13.42ZM1090.32,141.41l-51.57,80.49H1026l43-67.08h-7.63l13.92-13.41Zm55.23,0L1094,221.9h-12.74l43-67.08h-7.64l13.92-13.41Zm55.22,0-51.58,80.49h-12.74l43-67.08h-7.64l13.92-13.41Zm71.46,0c23.85.13,22.67,22.76,10.89,40.24-11.77,19.27-40.39,40.45-62.46,40.25-23.91-.19-22.59-22.73-10.83-40.24C1221.59,162.4,1250.24,141.24,1272.23,141.41Zm-43,67.08c14.56.07,33.32-14.11,41.12-26.84,7.71-11.4,9-26.74-6.73-26.83-14.51-.08-33.29,14.1-41.07,26.83C1214.86,193.11,1213.51,208.34,1229.25,208.49Zm151.12-67.08c23.84.13,22.66,22.76,10.88,40.24-11.77,19.27-40.38,40.45-62.46,40.25-23.91-.19-22.59-22.73-10.83-40.24C1329.72,162.4,1358.38,141.24,1380.37,141.41Zm-43,67.08c14.56.07,33.31-14.11,41.12-26.84,7.7-11.4,9-26.74-6.74-26.83-14.51-.08-33.28,14.1-41.06,26.83C1323,193.11,1321.65,208.34,1337.39,208.49Zm134.87-67.08-51.57,80.49h-12.75l43-67.08h-7.63l13.92-13.41Zm27.91,0L1448.6,221.9h-12.75l43-67.08h-7.63l13.92-13.41Zm-499,139.12L949.61,361H936.87l43-67.09h-7.64l13.92-13.41Zm71.46,0c23.84.13,22.66,22.76,10.88,40.25-11.77,19.26-40.38,40.44-62.46,40.25-23.9-.19-22.59-22.74-10.83-40.25C1022,301.53,1050.66,280.36,1072.65,280.53Zm-43,67.08c14.56.07,33.31-14.11,41.12-26.83,7.7-11.41,9-26.75-6.74-26.84-14.51-.08-33.28,14.1-41.06,26.84C1015.27,332.23,1013.93,347.46,1029.67,347.61Zm134.87-67.08L1113,361h-12.74l43-67.09h-7.63l13.92-13.41Zm55.23,0L1168.19,361h-12.74l43-67.09h-7.64l13.92-13.41Zm71.46,0c23.85.13,22.67,22.76,10.89,40.25-11.78,19.26-40.39,40.44-62.46,40.25-23.91-.19-22.59-22.74-10.84-40.25C1240.59,301.53,1269.24,280.36,1291.23,280.53Zm-43,67.08c14.56.07,33.32-14.11,41.12-26.83,7.7-11.41,9-26.75-6.73-26.84-14.52-.08-33.29,14.1-41.07,26.84C1233.86,332.23,1232.51,347.46,1248.25,347.61Zm134.88-67.08L1331.55,361h-12.74l43-67.09h-7.64l13.92-13.41Zm27.91,0L1359.46,361h-12.74l43-67.09h-7.64L1396,280.53Z"/></clipPath><symbol id="Новый_символ" data-name="Новый символ" viewBox="0 0 388.85 344.7"><path class="cls-2" d="M.93,1.5c129,6.72,252.93,4.44,387,6.7"/><path class="cls-2" d="M.93,8.2c129.65,25.36,231.77,3.73,387,6.44"/><path class="cls-2" d="M.93,14.9c131.1,42.51,212.29,2.31,387,6.17"/><path class="cls-2" d="M.93,21.6c133.32,58.23,194.44.22,387,5.91"/><path class="cls-2" d="M.93,28.3c136.25,72.54,178.17-2.48,387,5.65"/><path class="cls-2" d="M.93,35c139.84,85.5,163.43-5.75,387,5.38"/><path class="cls-2" d="M.93,41.7c144.06,97.16,150.16-9.56,387,5.12"/><path class="cls-2" d="M.93,48.4c148.83,107.55,138.32-13.85,387,4.86"/><path class="cls-2" d="M.93,55.1c154.11,116.73,127.85-18.57,387,4.6"/><path class="cls-2" d="M.93,61.8c159.85,124.73,118.71-23.7,387,4.33"/><path class="cls-2" d="M.93,68.5c166,131.61,110.84-29.17,387,4.07"/><path class="cls-2" d="M.93,75.2c172.51,137.41,104.2-35,387,3.81"/><path class="cls-2" d="M.93,81.9c179.32,142.16,98.72-41,387,3.55"/><path class="cls-2" d="M.93,88.6c186.39,145.93,94.37-47.27,387,3.28"/><path class="cls-2" d="M.93,95.3c193.66,148.75,91.09-53.7,387,3"/><path class="cls-2" d="M.93,102c201.07,150.66,88.82-60.27,387,2.76"/><path class="cls-2" d="M.93,108.7c208.59,151.72,87.53-66.93,387,2.49"/><path class="cls-2" d="M.93,115.4c216.15,152,87.15-73.62,387,2.23"/><path class="cls-2" d="M.93,122.1c223.71,151.44,87.65-80.31,387,2"/><path class="cls-2" d="M.93,128.8c231.22,150.2,88.95-87,387,1.71"/><path class="cls-2" d="M.93,135.5c238.62,148.27,91-93.51,387,1.44"/><path class="cls-2" d="M.93,142.2c245.86,145.72,93.81-99.92,387,1.18"/><path class="cls-2" d="M.93,148.9c252.89,142.57,97.27-106.15,387,.92"/><path class="cls-2" d="M.93,155.6c259.66,138.89,101.33-112.16,387,.65"/><path class="cls-2" d="M.93,162.3c266.11,134.7,106-117.9,387,.39"/><path class="cls-2" d="M.93,169c272.2,130.07,111.1-123.33,387,.13"/><path class="cls-2" d="M.93,175.7c277.88,125,116.7-128.39,387-.13"/><path class="cls-2" d="M.93,182.4C284,302,123.64,49.34,387.93,182"/><path class="cls-2" d="M.93,189.1C288.71,303,130,51.83,387.93,188.44"/><path class="cls-2" d="M.93,195.8c291.9,107.89,135.76-141,387-.92"/><path class="cls-2" d="M.93,202.5c295.4,101.66,142.7-144.19,387-1.18"/><path class="cls-2" d="M.93,209.2c298.22,95.25,149.84-146.8,387-1.45"/><path class="cls-2" d="M.93,215.9c300.33,88.7,157.14-148.79,387-1.71"/><path class="cls-2" d="M.93,222.6c301.65,82.06,164.55-150.11,387-2"/><path class="cls-2" d="M.93,229.3c302.15,75.37,172-150.71,387-2.24"/><path class="cls-2" d="M.93,236c301.77,68.67,179.47-150.56,387-2.5"/><path class="cls-2" d="M.93,242.7c300.46,62,186.89-149.6,387-2.76"/><path class="cls-2" d="M.93,249.4c298.16,55.46,194.21-147.8,387-3"/><path class="cls-2" d="M.93,256.1c294.84,49,201.38-145.11,387-3.29"/><path class="cls-2" d="M.93,262.8c290.43,42.76,208.35-141.48,387-3.55"/><path class="cls-2" d="M.93,269.5c284.88,36.73,215.07-136.88,387-3.81"/><path class="cls-2" d="M.93,276.2c278.14,31,221.49-131.25,387-4.07"/><path class="cls-2" d="M.93,282.9c270.17,25.5,227.56-124.55,387-4.34"/><path class="cls-2" d="M.93,289.6c260.9,20.39,233.23-116.74,387-4.6"/><path class="cls-2" d="M.93,296.3c250.3,15.69,238.44-107.77,387-4.86"/><path class="cls-2" d="M.93,303c238.3,11.43,243.15-97.61,387-5.13"/><path class="cls-2" d="M.93,309.7c224.85,7.67,247.31-86.19,387-5.39"/><path class="cls-2" d="M.93,316.4c209.91,4.44,250.86-73.49,387-5.65"/><path class="cls-2" d="M.93,323.1c193.42,1.79,253.75-59.46,387-5.91"/><path class="cls-2" d="M.93,329.8c175.33-.23,255.94-44,387-6.18"/><path class="cls-2" d="M.93,336.5c155.59-1.58,257.36-27.2,387-6.44"/><path class="cls-2" d="M.93,343.2c134.15-2.22,258-8.9,387-6.7"/></symbol></defs><g id="Слой_2" data-name="Слой 2"><g id="Слой_1-2" data-name="Слой 1"><g class="cls-3"><use width="388.85" height="344.7" transform="matrix(1.33, 0, -0.89, 1.43, 270.34, -17.11)" xlink:href="#Новый_символ"/></g><g class="cls-4"><use width="388.85" height="344.7" transform="matrix(1.14, 0, -0.76, 1.18, 628.59, -17.87)" xlink:href="#Новый_символ"/></g><g class="cls-5"><use width="388.85" height="344.7" transform="matrix(1.31, 0, -0.88, 1.45, 1012.33, -36.17)" xlink:href="#Новый_символ"/></g></g></g></svg>