<svg id="Слой_1" data-name="Слой 1" xmlns="http://www.w3.org/2000/svg" viewBox="0 0 29.13 17.53"><defs><style>.cls-1{fill:#5a5a5a;}</style></defs><path d="M12.6,3.38V17.53h-5V6.36A13.78,13.78,0,0,1,12.6,3.38Z"/><path class="cls-1" d="M19.11,17.53h-5a14.47,14.47,0,0,1,.88-5,13.64,13.64,0,0,1,3-5,8.33,8.33,0,0,1,1.15-1.15,13.78,13.78,0,0,1,5-3V8.81a9.66,9.66,0,0,0-3.66,3.71A9.71,9.71,0,0,0,19.11,17.53Z"/><path d="M17.6.13V4.89a.12.12,0,0,1-.12.12,14.44,14.44,0,0,0-4.88.87,3.2,3.2,0,0,0-.63.23A14.23,14.23,0,0,0,7.59,8.86,8.4,8.4,0,0,0,6.44,10a14.15,14.15,0,0,0-2,2.73c0,.06-.1.09-.16,0S.39,10.63,0,10.49L.28,10a17.67,17.67,0,0,1,2.3-3.23c.2-.23.4-.45.63-.68A15,15,0,0,1,4.36,5,18.58,18.58,0,0,1,7.59,2.7a19.54,19.54,0,0,1,5-2.07A20.56,20.56,0,0,1,17.47,0,.13.13,0,0,1,17.6.13Z"/><path class="cls-1" d="M19.11,0h.1a9.94,9.94,0,0,1,4.91,1.3A9.71,9.71,0,0,1,27.77,5a9.72,9.72,0,0,1,1.36,5,9,9,0,0,1-.33,2.5,20.37,20.37,0,0,0-4.68-1.88V10a5,5,0,0,0-5-5Z"/></svg>