<svg id="Слой_1" data-name="Слой 1" xmlns="http://www.w3.org/2000/svg" viewBox="0 0 30.19 17.58"><defs><style>.cls-1{stroke:#000;stroke-miterlimit:10;stroke-width:0.05px;}</style></defs><path class="cls-1" d="M17.64,4.91V.16A.13.13,0,0,0,17.51,0a20.64,20.64,0,0,0-4.88.62,19.71,19.71,0,0,0-5,2.08A18.92,18.92,0,0,0,4.39,5,15.13,15.13,0,0,0,3.24,6.14c-.22.22-.42.45-.62.67A18.43,18.43,0,0,0,.31,10c-.12.22-.22.38-.27.48.39.14,4.16,2.19,4.29,2.3s.12,0,.16-.05a14.41,14.41,0,0,1,2-2.73A8.92,8.92,0,0,1,7.62,8.89v8.66h5V5.91A14.76,14.76,0,0,1,17.52,5,.12.12,0,0,0,17.64,4.91Z"/><path class="cls-1" d="M28.81,5a9.57,9.57,0,0,0-3.66-3.7A9.77,9.77,0,0,0,20.25,0h-.1V5a5.06,5.06,0,0,1,1.4.23,12.8,12.8,0,0,0-1.4,1.13A7.88,7.88,0,0,0,19,7.54a13.92,13.92,0,0,0-3,5,14.6,14.6,0,0,0-.87,5h5a9.68,9.68,0,0,1,1.35-5A9.49,9.49,0,0,1,25,8.93,5.11,5.11,0,0,1,25.15,10v.63a19.58,19.58,0,0,1,4.69,1.88A9.44,9.44,0,0,0,30.16,10,9.71,9.71,0,0,0,28.81,5Z"/><path d="M5.69,9.61c.09-.12.18-.25.28-.37S6.14,9,6,9.19s0,0,.07-.08c.18-.23.37-.45.56-.66A11.25,11.25,0,0,1,8,7.21L9.39,6.09l.37-.29.17-.13s.23-.18.05,0,0,0,.07,0l.16-.11s.3-.14.07-.05,0,0,.08,0a1.52,1.52,0,0,0,1.05-1.84A1.53,1.53,0,0,0,9.56,2.53a5.47,5.47,0,0,0-2,1.25C7,4.19,6.45,4.6,5.93,5A11.79,11.79,0,0,0,4.51,6.33,21.72,21.72,0,0,0,3.1,8.09,1.52,1.52,0,0,0,3,9.25a1.54,1.54,0,0,0,.69.89,1.52,1.52,0,0,0,1.16.16,1.78,1.78,0,0,0,.89-.69Z"/><path d="M10.34,5.41a1.5,1.5,0,0,0,0-3,1.5,1.5,0,0,0,0,3Z"/><path d="M8,6.17a1.5,1.5,0,0,0,0-3,1.5,1.5,0,0,0,0,3Z"/><path d="M7.4,6.83a1.5,1.5,0,0,0,0-3,1.5,1.5,0,0,0,0,3Z"/><path d="M7.58,7.52l.09-.13c.09-.13.06-.09-.09.11a1.75,1.75,0,0,0,.23-.24l.12-.1-.11.08.28-.18.6-.31L9,6.62l.15-.07c-.2.08-.24.1-.13.06l3.14-1.33a1.65,1.65,0,0,0,.89-.69,1.49,1.49,0,0,0,.15-1.15,1.5,1.5,0,0,0-1.84-1L7.68,3.94A5.48,5.48,0,0,0,5,6,1.5,1.5,0,1,0,7.58,7.52Z"/><path d="M5.09,9.69c1-.68,2-1.37,3-2.1.55-.41,1.09-.82,1.61-1.26.2-.16.39-.34.6-.49-.21.15.17-.1.17-.1.25-.15,0,0-.2,0L9.21,5.32C9,4.84,8.92,4.76,9,5.08,9,5,9,5,9,5.1s0,.34.07.51c0,.37.07.74.08,1.1A13.5,13.5,0,0,1,9,8.82a18.59,18.59,0,0,0-.24,4.28,1.53,1.53,0,0,0,1.5,1.5c.73,0,1.59-.67,1.5-1.5a20.25,20.25,0,0,1,.27-4.53,13.37,13.37,0,0,0,.06-2.28c0-.37-.07-.74-.11-1.1a4.64,4.64,0,0,0-.32-1.53A1.86,1.86,0,0,0,9,3.15a14.92,14.92,0,0,0-1.9,1.48l-.62.47c-.31.23-.62.46-.94.68-.64.45-1.28.88-1.92,1.32A1.5,1.5,0,1,0,5.09,9.69Z"/><path d="M20.41,12.71c0,.26,0-.17.05-.22s.07-.3.11-.45.09-.3.14-.45.08-.19.11-.29c0,.1,0,.1,0,0a6.47,6.47,0,0,1,.44-.82,3.77,3.77,0,0,1,.26-.39c0-.07.09-.13.13-.19s-.05.07,0,0a7.36,7.36,0,0,1,1.24-1.18,8.17,8.17,0,0,1,1.66-.85,2.75,2.75,0,0,0,1.58-1.81,3.75,3.75,0,0,0-.38-2.48c-.58-1.31-1.62-2.79-3.12-3a1.58,1.58,0,0,0-1.7.69A1.51,1.51,0,0,0,21.19,3a37.69,37.69,0,0,1,3.56,3,8,8,0,0,1,1.48,3.3,1.53,1.53,0,0,0,1.85,1,1.51,1.51,0,0,0,1-1.84,11.72,11.72,0,0,0-2-4.37,12.29,12.29,0,0,0-1.69-1.53L23.31.92,21.85,3.43l.2,0,.12.07h0l.25.25.16.22a3.87,3.87,0,0,1,.66,1.34v0c0,.11,0,.1,0,0l.16-.18-.09.06-.14.06L23,5.29a8.54,8.54,0,0,0-1.71.92,9.36,9.36,0,0,0-3.86,6.5,1.52,1.52,0,0,0,1.5,1.5,1.54,1.54,0,0,0,1.5-1.5Z"/><path d="M23.7,7.88a1.5,1.5,0,0,0,0-3,1.5,1.5,0,0,0,0,3Z"/></svg>